<mxfile host="app.diagrams.net" modified="2020-07-24T13:49:38.237Z" agent="5.0 (Windows NT 10.0; Win64; x64) AppleWebKit/537.36 (KHTML, like Gecko) Chrome/84.0.4147.89 Safari/537.36" etag="VugYfn8JLUtu2hktxY4l" version="13.5.1" type="github">
  <diagram id="9rWMDDLO5L1p_0_issGw" name="Page-1">
    <mxGraphModel dx="881" dy="435" grid="0" gridSize="10" guides="1" tooltips="1" connect="1" arrows="1" fold="1" page="1" pageScale="1" pageWidth="1169" pageHeight="827" background="#FFFFFF" math="0" shadow="0">
      <root>
        <mxCell id="0" />
        <mxCell id="1" parent="0" />
        <mxCell id="c_ps9pJnY30sKacghCeX-1" value="Hàng hóa" style="swimlane;fontStyle=0;childLayout=stackLayout;horizontal=1;startSize=26;fillColor=#dae8fc;horizontalStack=0;resizeParent=1;resizeParentMax=0;resizeLast=0;collapsible=1;marginBottom=0;strokeColor=#6c8ebf;" vertex="1" parent="1">
          <mxGeometry x="100" y="120" width="140" height="78" as="geometry" />
        </mxCell>
        <mxCell id="c_ps9pJnY30sKacghCeX-2" value="Mã hàng hóa" style="text;strokeColor=none;fillColor=none;align=left;verticalAlign=top;spacingLeft=4;spacingRight=4;overflow=hidden;rotatable=0;points=[[0,0.5],[1,0.5]];portConstraint=eastwest;" vertex="1" parent="c_ps9pJnY30sKacghCeX-1">
          <mxGeometry y="26" width="140" height="26" as="geometry" />
        </mxCell>
        <mxCell id="c_ps9pJnY30sKacghCeX-3" value="Tên hàng hóa" style="text;strokeColor=none;fillColor=none;align=left;verticalAlign=top;spacingLeft=4;spacingRight=4;overflow=hidden;rotatable=0;points=[[0,0.5],[1,0.5]];portConstraint=eastwest;" vertex="1" parent="c_ps9pJnY30sKacghCeX-1">
          <mxGeometry y="52" width="140" height="26" as="geometry" />
        </mxCell>
        <mxCell id="c_ps9pJnY30sKacghCeX-17" value="Đại lý vận chuyển" style="swimlane;fontStyle=0;childLayout=stackLayout;horizontal=1;startSize=26;fillColor=#dae8fc;horizontalStack=0;resizeParent=1;resizeParentMax=0;resizeLast=0;collapsible=1;marginBottom=0;strokeColor=#6c8ebf;" vertex="1" parent="1">
          <mxGeometry x="600" y="120" width="140" height="78" as="geometry" />
        </mxCell>
        <mxCell id="c_ps9pJnY30sKacghCeX-18" value="Mã đại lý" style="text;strokeColor=none;fillColor=none;align=left;verticalAlign=top;spacingLeft=4;spacingRight=4;overflow=hidden;rotatable=0;points=[[0,0.5],[1,0.5]];portConstraint=eastwest;" vertex="1" parent="c_ps9pJnY30sKacghCeX-17">
          <mxGeometry y="26" width="140" height="26" as="geometry" />
        </mxCell>
        <mxCell id="c_ps9pJnY30sKacghCeX-19" value="Tên đại lý" style="text;strokeColor=none;fillColor=none;align=left;verticalAlign=top;spacingLeft=4;spacingRight=4;overflow=hidden;rotatable=0;points=[[0,0.5],[1,0.5]];portConstraint=eastwest;" vertex="1" parent="c_ps9pJnY30sKacghCeX-17">
          <mxGeometry y="52" width="140" height="26" as="geometry" />
        </mxCell>
        <mxCell id="c_ps9pJnY30sKacghCeX-26" value="" style="edgeStyle=orthogonalEdgeStyle;fontSize=12;html=1;endArrow=ERoneToMany;exitX=1.02;exitY=0.149;exitDx=0;exitDy=0;entryX=0;entryY=0.5;entryDx=0;entryDy=0;curved=1;exitPerimeter=0;" edge="1" parent="1" source="c_ps9pJnY30sKacghCeX-1" target="c_ps9pJnY30sKacghCeX-23">
          <mxGeometry width="100" height="100" relative="1" as="geometry">
            <mxPoint x="362" y="214" as="sourcePoint" />
            <mxPoint x="462" y="114" as="targetPoint" />
            <Array as="points">
              <mxPoint x="295" y="132" />
              <mxPoint x="295" y="185" />
            </Array>
          </mxGeometry>
        </mxCell>
        <mxCell id="c_ps9pJnY30sKacghCeX-34" value="1, 1" style="edgeLabel;html=1;align=center;verticalAlign=middle;resizable=0;points=[];fontSize=12;" vertex="1" connectable="0" parent="c_ps9pJnY30sKacghCeX-26">
          <mxGeometry x="-0.8755" y="1" relative="1" as="geometry">
            <mxPoint x="5.2" y="20.38" as="offset" />
          </mxGeometry>
        </mxCell>
        <mxCell id="c_ps9pJnY30sKacghCeX-35" value="1, n" style="edgeLabel;html=1;align=center;verticalAlign=middle;resizable=0;points=[];fontSize=12;" vertex="1" connectable="0" parent="c_ps9pJnY30sKacghCeX-26">
          <mxGeometry x="0.7733" relative="1" as="geometry">
            <mxPoint x="3.6" y="-13" as="offset" />
          </mxGeometry>
        </mxCell>
        <mxCell id="c_ps9pJnY30sKacghCeX-27" value="" style="edgeStyle=orthogonalEdgeStyle;fontSize=12;html=1;endArrow=ERmany;startArrow=ERmany;curved=1;entryX=0.86;entryY=1.015;entryDx=0;entryDy=0;exitX=0.25;exitY=0;exitDx=0;exitDy=0;entryPerimeter=0;" edge="1" parent="1" source="c_ps9pJnY30sKacghCeX-13" target="c_ps9pJnY30sKacghCeX-24">
          <mxGeometry width="100" height="100" relative="1" as="geometry">
            <mxPoint x="216" y="322" as="sourcePoint" />
            <mxPoint x="316" y="222" as="targetPoint" />
          </mxGeometry>
        </mxCell>
        <mxCell id="c_ps9pJnY30sKacghCeX-40" value="1, n" style="edgeLabel;html=1;align=center;verticalAlign=middle;resizable=0;points=[];fontSize=12;" vertex="1" connectable="0" parent="c_ps9pJnY30sKacghCeX-27">
          <mxGeometry x="0.8789" y="-4" relative="1" as="geometry">
            <mxPoint x="13.6" y="-1.6" as="offset" />
          </mxGeometry>
        </mxCell>
        <mxCell id="c_ps9pJnY30sKacghCeX-43" value="1, n" style="edgeLabel;html=1;align=center;verticalAlign=middle;resizable=0;points=[];fontSize=12;" vertex="1" connectable="0" parent="c_ps9pJnY30sKacghCeX-27">
          <mxGeometry x="-0.8564" y="4" relative="1" as="geometry">
            <mxPoint x="-14" y="-2" as="offset" />
          </mxGeometry>
        </mxCell>
        <mxCell id="c_ps9pJnY30sKacghCeX-28" value="" style="edgeStyle=orthogonalEdgeStyle;fontSize=12;html=1;endArrow=ERmany;startArrow=ERmany;curved=1;exitX=0.203;exitY=0.985;exitDx=0;exitDy=0;exitPerimeter=0;entryX=0.75;entryY=0;entryDx=0;entryDy=0;" edge="1" parent="1" source="c_ps9pJnY30sKacghCeX-24" target="c_ps9pJnY30sKacghCeX-9">
          <mxGeometry width="100" height="100" relative="1" as="geometry">
            <mxPoint x="423" y="271" as="sourcePoint" />
            <mxPoint x="597" y="362" as="targetPoint" />
          </mxGeometry>
        </mxCell>
        <mxCell id="c_ps9pJnY30sKacghCeX-36" value="1, n" style="edgeLabel;html=1;align=center;verticalAlign=middle;resizable=0;points=[];fontSize=12;" vertex="1" connectable="0" parent="c_ps9pJnY30sKacghCeX-28">
          <mxGeometry x="0.8726" y="3" relative="1" as="geometry">
            <mxPoint x="-23" y="-2.21" as="offset" />
          </mxGeometry>
        </mxCell>
        <mxCell id="c_ps9pJnY30sKacghCeX-39" value="1, n" style="edgeLabel;html=1;align=center;verticalAlign=middle;resizable=0;points=[];fontSize=12;" vertex="1" connectable="0" parent="c_ps9pJnY30sKacghCeX-28">
          <mxGeometry x="-0.91" y="-1" relative="1" as="geometry">
            <mxPoint x="-19.42" y="1.39" as="offset" />
          </mxGeometry>
        </mxCell>
        <mxCell id="c_ps9pJnY30sKacghCeX-29" value="" style="edgeStyle=orthogonalEdgeStyle;fontSize=12;html=1;endArrow=ERmany;startArrow=ERmany;curved=1;exitX=1;exitY=0.5;exitDx=0;exitDy=0;entryX=0.009;entryY=0.154;entryDx=0;entryDy=0;entryPerimeter=0;" edge="1" parent="1" source="c_ps9pJnY30sKacghCeX-10" target="c_ps9pJnY30sKacghCeX-5">
          <mxGeometry width="100" height="100" relative="1" as="geometry">
            <mxPoint x="522" y="346" as="sourcePoint" />
            <mxPoint x="749" y="418" as="targetPoint" />
          </mxGeometry>
        </mxCell>
        <mxCell id="c_ps9pJnY30sKacghCeX-37" value="1, n" style="edgeLabel;html=1;align=center;verticalAlign=middle;resizable=0;points=[];fontSize=12;" vertex="1" connectable="0" parent="c_ps9pJnY30sKacghCeX-29">
          <mxGeometry x="-0.8738" relative="1" as="geometry">
            <mxPoint x="4" y="10" as="offset" />
          </mxGeometry>
        </mxCell>
        <mxCell id="c_ps9pJnY30sKacghCeX-38" value="1, n" style="edgeLabel;html=1;align=center;verticalAlign=middle;resizable=0;points=[];fontSize=12;" vertex="1" connectable="0" parent="c_ps9pJnY30sKacghCeX-29">
          <mxGeometry x="0.8524" y="1" relative="1" as="geometry">
            <mxPoint x="-5" y="-11.01" as="offset" />
          </mxGeometry>
        </mxCell>
        <mxCell id="c_ps9pJnY30sKacghCeX-32" value="" style="edgeStyle=orthogonalEdgeStyle;fontSize=12;html=1;endArrow=ERmany;startArrow=ERmany;curved=1;entryX=0.871;entryY=1;entryDx=0;entryDy=0;entryPerimeter=0;exitX=0.5;exitY=0;exitDx=0;exitDy=0;" edge="1" parent="1" source="c_ps9pJnY30sKacghCeX-13" target="c_ps9pJnY30sKacghCeX-19">
          <mxGeometry width="100" height="100" relative="1" as="geometry">
            <mxPoint x="484" y="306" as="sourcePoint" />
            <mxPoint x="694.78" y="223.61" as="targetPoint" />
          </mxGeometry>
        </mxCell>
        <mxCell id="c_ps9pJnY30sKacghCeX-41" value="1, n" style="edgeLabel;html=1;align=center;verticalAlign=middle;resizable=0;points=[];fontSize=12;" vertex="1" connectable="0" parent="c_ps9pJnY30sKacghCeX-32">
          <mxGeometry x="0.8221" y="-1" relative="1" as="geometry">
            <mxPoint x="-18.93" y="-4.9" as="offset" />
          </mxGeometry>
        </mxCell>
        <mxCell id="c_ps9pJnY30sKacghCeX-42" value="1, n" style="edgeLabel;html=1;align=center;verticalAlign=middle;resizable=0;points=[];fontSize=12;" vertex="1" connectable="0" parent="c_ps9pJnY30sKacghCeX-32">
          <mxGeometry x="-0.7433" y="-1" relative="1" as="geometry">
            <mxPoint x="14" y="4" as="offset" />
          </mxGeometry>
        </mxCell>
        <mxCell id="c_ps9pJnY30sKacghCeX-21" value="Container" style="swimlane;fontStyle=0;childLayout=stackLayout;horizontal=1;startSize=26;fillColor=#dae8fc;horizontalStack=0;resizeParent=1;resizeParentMax=0;resizeLast=0;collapsible=1;marginBottom=0;strokeColor=#6c8ebf;" vertex="1" parent="1">
          <mxGeometry x="350" y="120" width="140" height="104" as="geometry" />
        </mxCell>
        <mxCell id="c_ps9pJnY30sKacghCeX-22" value="Mã container" style="text;strokeColor=none;fillColor=none;align=left;verticalAlign=top;spacingLeft=4;spacingRight=4;overflow=hidden;rotatable=0;points=[[0,0.5],[1,0.5]];portConstraint=eastwest;" vertex="1" parent="c_ps9pJnY30sKacghCeX-21">
          <mxGeometry y="26" width="140" height="26" as="geometry" />
        </mxCell>
        <mxCell id="c_ps9pJnY30sKacghCeX-23" value="Đích đến" style="text;strokeColor=none;fillColor=none;align=left;verticalAlign=top;spacingLeft=4;spacingRight=4;overflow=hidden;rotatable=0;points=[[0,0.5],[1,0.5]];portConstraint=eastwest;" vertex="1" parent="c_ps9pJnY30sKacghCeX-21">
          <mxGeometry y="52" width="140" height="26" as="geometry" />
        </mxCell>
        <mxCell id="c_ps9pJnY30sKacghCeX-24" value="Kích cỡ" style="text;strokeColor=none;fillColor=none;align=left;verticalAlign=top;spacingLeft=4;spacingRight=4;overflow=hidden;rotatable=0;points=[[0,0.5],[1,0.5]];portConstraint=eastwest;" vertex="1" parent="c_ps9pJnY30sKacghCeX-21">
          <mxGeometry y="78" width="140" height="26" as="geometry" />
        </mxCell>
        <mxCell id="c_ps9pJnY30sKacghCeX-5" value="Chuyến hải trình" style="swimlane;fontStyle=0;childLayout=stackLayout;horizontal=1;startSize=26;fillColor=#dae8fc;horizontalStack=0;resizeParent=1;resizeParentMax=0;resizeLast=0;collapsible=1;marginBottom=0;strokeColor=#6c8ebf;" vertex="1" parent="1">
          <mxGeometry x="350" y="318" width="140" height="104" as="geometry" />
        </mxCell>
        <mxCell id="c_ps9pJnY30sKacghCeX-6" value="Mã hải trình" style="text;strokeColor=none;fillColor=none;align=left;verticalAlign=top;spacingLeft=4;spacingRight=4;overflow=hidden;rotatable=0;points=[[0,0.5],[1,0.5]];portConstraint=eastwest;" vertex="1" parent="c_ps9pJnY30sKacghCeX-5">
          <mxGeometry y="26" width="140" height="26" as="geometry" />
        </mxCell>
        <mxCell id="c_ps9pJnY30sKacghCeX-7" value="Số lô hàng" style="text;strokeColor=none;fillColor=none;align=left;verticalAlign=top;spacingLeft=4;spacingRight=4;overflow=hidden;rotatable=0;points=[[0,0.5],[1,0.5]];portConstraint=eastwest;" vertex="1" parent="c_ps9pJnY30sKacghCeX-5">
          <mxGeometry y="52" width="140" height="26" as="geometry" />
        </mxCell>
        <mxCell id="c_ps9pJnY30sKacghCeX-8" value="Trọng tải" style="text;strokeColor=none;fillColor=none;align=left;verticalAlign=top;spacingLeft=4;spacingRight=4;overflow=hidden;rotatable=0;points=[[0,0.5],[1,0.5]];portConstraint=eastwest;" vertex="1" parent="c_ps9pJnY30sKacghCeX-5">
          <mxGeometry y="78" width="140" height="26" as="geometry" />
        </mxCell>
        <mxCell id="c_ps9pJnY30sKacghCeX-9" value="Con tàu" style="swimlane;fontStyle=0;childLayout=stackLayout;horizontal=1;startSize=26;fillColor=#dae8fc;horizontalStack=0;resizeParent=1;resizeParentMax=0;resizeLast=0;collapsible=1;marginBottom=0;strokeColor=#6c8ebf;" vertex="1" parent="1">
          <mxGeometry x="105" y="344" width="140" height="78" as="geometry" />
        </mxCell>
        <mxCell id="c_ps9pJnY30sKacghCeX-10" value="Mã con tàu" style="text;strokeColor=none;fillColor=none;align=left;verticalAlign=top;spacingLeft=4;spacingRight=4;overflow=hidden;rotatable=0;points=[[0,0.5],[1,0.5]];portConstraint=eastwest;" vertex="1" parent="c_ps9pJnY30sKacghCeX-9">
          <mxGeometry y="26" width="140" height="26" as="geometry" />
        </mxCell>
        <mxCell id="c_ps9pJnY30sKacghCeX-11" value="Quốc gia đăng ký" style="text;strokeColor=none;fillColor=none;align=left;verticalAlign=top;spacingLeft=4;spacingRight=4;overflow=hidden;rotatable=0;points=[[0,0.5],[1,0.5]];portConstraint=eastwest;" vertex="1" parent="c_ps9pJnY30sKacghCeX-9">
          <mxGeometry y="52" width="140" height="26" as="geometry" />
        </mxCell>
        <mxCell id="c_ps9pJnY30sKacghCeX-13" value="Lô hàng" style="swimlane;fontStyle=0;childLayout=stackLayout;horizontal=1;startSize=26;fillColor=#dae8fc;horizontalStack=0;resizeParent=1;resizeParentMax=0;resizeLast=0;collapsible=1;marginBottom=0;strokeColor=#6c8ebf;" vertex="1" parent="1">
          <mxGeometry x="600" y="344" width="140" height="78" as="geometry" />
        </mxCell>
        <mxCell id="c_ps9pJnY30sKacghCeX-14" value="Mã lô hàng" style="text;strokeColor=none;fillColor=none;align=left;verticalAlign=top;spacingLeft=4;spacingRight=4;overflow=hidden;rotatable=0;points=[[0,0.5],[1,0.5]];portConstraint=eastwest;" vertex="1" parent="c_ps9pJnY30sKacghCeX-13">
          <mxGeometry y="26" width="140" height="26" as="geometry" />
        </mxCell>
        <mxCell id="c_ps9pJnY30sKacghCeX-15" value="Giá trị lô hàng" style="text;strokeColor=none;fillColor=none;align=left;verticalAlign=top;spacingLeft=4;spacingRight=4;overflow=hidden;rotatable=0;points=[[0,0.5],[1,0.5]];portConstraint=eastwest;" vertex="1" parent="c_ps9pJnY30sKacghCeX-13">
          <mxGeometry y="52" width="140" height="26" as="geometry" />
        </mxCell>
      </root>
    </mxGraphModel>
  </diagram>
</mxfile>
